<svg width="24" height="24" viewBox="0 0 24 24" fill="none" xmlns="http://www.w3.org/2000/svg">
<path d="M17.5987 13.2005H16.9988C16.9988 10.8787 15.121 9.00092 12.7992 9.00092H12.1993V8.239C12.3817 8.13366 12.5332 7.98214 12.6385 7.79968C12.7438 7.61722 12.7993 7.41024 12.7992 7.19957C12.7991 6.98889 12.7436 6.78195 12.6382 6.59954C12.5328 6.41713 12.3812 6.26569 12.1987 6.16045C12.0162 6.0552 11.8092 5.99987 11.5986 6C11.3879 6.00014 11.181 6.05574 10.9986 6.16121C10.8162 6.26669 10.6648 6.41833 10.5597 6.60087C10.4545 6.78341 10.3992 6.99043 10.3994 7.20111C10.3994 7.64506 10.6394 8.03502 10.9994 8.239V9.00092H10.3994C8.07768 9.00092 6.19988 10.8787 6.19988 13.2005H5.59994C5.26997 13.2005 5 13.4705 5 13.8004V15.6002C5 15.9302 5.26997 16.2002 5.59994 16.2002H6.19988V16.8001C6.19988 17.1184 6.32629 17.4235 6.55131 17.6486C6.77633 17.8736 7.08153 18 7.39975 18H15.7989C16.4648 18 16.9988 17.4661 16.9988 16.8001V16.2002H17.5987C17.9287 16.2002 18.1986 15.9302 18.1986 15.6002V13.8004C18.1986 13.4705 17.9287 13.2005 17.5987 13.2005ZM16.9988 15.0003H15.7989V16.8001H7.39975V15.0003H6.19988V14.4004H7.39975V13.2005C7.39975 11.5447 8.74362 10.2008 10.3994 10.2008H12.7992C14.455 10.2008 15.7989 11.5447 15.7989 13.2005V14.4004H16.9988V15.0003ZM14.899 14.1004C14.899 14.7663 14.365 15.3003 13.6991 15.3003C13.1172 15.3003 12.6372 14.8863 12.5232 14.3404L14.299 13.0685C14.659 13.2785 14.899 13.6564 14.899 14.1004ZM8.8996 13.0685L10.6754 14.3404C10.5674 14.8863 10.0815 15.3003 9.49954 15.3003C9.18131 15.3003 8.87612 15.1739 8.6511 14.9488C8.42608 14.7238 8.29966 14.4186 8.29966 14.1004C8.29966 13.6564 8.53964 13.2785 8.8996 13.0685Z" fill="white"/>
</svg>
