<svg width="50" height="50" viewBox="0 0 50 50" fill="none" xmlns="http://www.w3.org/2000/svg">
<path d="M16.5375 3.50037C16.292 3.50438 16.058 3.60558 15.887 3.7818C15.7159 3.95801 15.6217 4.19485 15.625 4.44041V15.8997H4.44336C4.19731 15.8997 3.96134 15.9974 3.78735 16.1714C3.61337 16.3454 3.51562 16.5814 3.51562 16.8274C3.51562 17.0735 3.61337 17.3094 3.78735 17.4834C3.96134 17.6574 4.19731 17.7552 4.44336 17.7552H15.625V32.5012H4.44336C4.19731 32.5012 3.96134 32.599 3.78735 32.773C3.61337 32.947 3.51562 33.1829 3.51562 33.429C3.51562 33.675 3.61337 33.911 3.78735 34.085C3.96134 34.259 4.19731 34.3567 4.44336 34.3567H15.625V45.5566C15.625 45.8027 15.7227 46.0386 15.8967 46.2126C16.0707 46.3866 16.3067 46.4844 16.5527 46.4844C16.7988 46.4844 17.0348 46.3866 17.2087 46.2126C17.3827 46.0386 17.4805 45.8027 17.4805 45.5566V34.3566H32.2266V45.5566C32.2266 45.8027 32.3243 46.0386 32.4983 46.2126C32.6723 46.3866 32.9082 46.4844 33.1543 46.4844C33.4003 46.4844 33.6363 46.3866 33.8103 46.2126C33.9843 46.0386 34.082 45.8027 34.082 45.5566V34.3566H45.5475C45.7935 34.3566 46.0295 34.2589 46.2035 34.0849C46.3775 33.9109 46.4752 33.6749 46.4752 33.4289C46.4752 33.1828 46.3775 32.9469 46.2035 32.7729C46.0295 32.5989 45.7935 32.5012 45.5475 32.5012H34.082V17.7551H45.3675C45.4893 17.7551 45.61 17.7311 45.7225 17.6844C45.8351 17.6378 45.9373 17.5695 46.0235 17.4833C46.1096 17.3972 46.178 17.2949 46.2246 17.1824C46.2712 17.0698 46.2952 16.9492 46.2952 16.8273C46.2952 16.7055 46.2712 16.5849 46.2246 16.4723C46.178 16.3597 46.1096 16.2575 46.0235 16.1713C45.9373 16.0852 45.8351 16.0168 45.7225 15.9702C45.61 15.9236 45.4893 15.8996 45.3675 15.8996H34.082V4.44041C34.0837 4.31625 34.0604 4.19303 34.0136 4.07803C33.9667 3.96304 33.8973 3.85861 33.8094 3.77095C33.7214 3.68329 33.6168 3.61417 33.5017 3.56769C33.3865 3.52121 33.2632 3.49832 33.1391 3.50037C32.8935 3.50438 32.6596 3.60558 32.4885 3.7818C32.3175 3.95801 32.2233 4.19485 32.2266 4.44041V15.8997H17.4805V4.44041C17.4821 4.31625 17.4589 4.19303 17.412 4.07803C17.3652 3.96304 17.2957 3.85861 17.2078 3.77095C17.1199 3.68329 17.0152 3.61417 16.9001 3.56769C16.7849 3.52121 16.6616 3.49832 16.5375 3.50037ZM8.39844 3.51268C7.12207 3.51268 5.88184 3.9951 4.96523 4.86453C4.04863 5.73387 3.51562 6.93943 3.51562 8.1908C3.51562 9.44217 4.04863 10.6478 4.96523 11.5173C5.88184 12.3867 7.12207 12.8721 8.39844 12.8721C9.6748 12.8721 10.915 12.3867 11.8316 11.5171C12.7482 10.6478 13.2812 9.44236 13.2812 8.191C13.2812 6.93963 12.7482 5.73396 11.8316 4.86453C10.915 3.9951 9.6748 3.51268 8.39844 3.51268ZM25 3.51268C23.7236 3.51268 22.4834 3.9951 21.5668 4.86453C20.6502 5.73387 20.1172 6.93943 20.1172 8.1908C20.1172 9.44217 20.6502 10.6478 21.5668 11.5173C22.4834 12.3867 23.7236 12.8721 25 12.8721C26.2764 12.8721 27.5166 12.3867 28.4332 11.5171C29.3498 10.6478 29.8828 9.44236 29.8828 8.191C29.8828 6.93963 29.3498 5.73396 28.4332 4.86453C27.5166 3.9951 26.2764 3.51268 25 3.51268ZM38.559 4.41287C38.3746 4.41341 38.1946 4.46887 38.0419 4.57218C37.8891 4.67549 37.7707 4.82197 37.7016 4.99291C37.6325 5.16385 37.6159 5.3515 37.6539 5.53191C37.6919 5.71233 37.7828 5.87732 37.915 6.00584L40.1001 8.1909L37.9883 10.3027C37.9021 10.3889 37.8338 10.4912 37.7871 10.6038C37.7405 10.7163 37.7165 10.837 37.7165 10.9589C37.7165 11.0807 37.7405 11.2014 37.7871 11.314C37.8338 11.4266 37.9021 11.5289 37.9883 11.615C38.0744 11.7012 38.1767 11.7695 38.2893 11.8162C38.4019 11.8628 38.5226 11.8868 38.6444 11.8868C38.7663 11.8868 38.887 11.8628 38.9995 11.8162C39.1121 11.7695 39.2144 11.7012 39.3006 11.615L41.4124 9.5031L43.5975 11.6913C43.7715 11.8653 44.0076 11.963 44.2537 11.963C44.4998 11.963 44.7358 11.8652 44.9098 11.6911C45.0838 11.5171 45.1816 11.281 45.1815 11.0349C45.1815 10.7888 45.0837 10.5528 44.9097 10.3788L42.7246 8.191L44.8364 6.07918C44.9707 5.94889 45.0624 5.78105 45.0996 5.59769C45.1367 5.41433 45.1176 5.22402 45.0447 5.05174C44.9717 4.87946 44.8484 4.73325 44.6909 4.63231C44.5334 4.53136 44.349 4.4804 44.162 4.48611C43.9209 4.49324 43.6921 4.59398 43.524 4.76697L41.4122 6.87869L39.2271 4.69373C39.1403 4.60446 39.0364 4.53358 38.9216 4.48533C38.8068 4.43708 38.6834 4.41244 38.5589 4.41287H38.559ZM8.39844 5.36795C9.19307 5.36795 10.0083 5.69383 10.5561 6.21336C11.1037 6.73289 11.4288 7.47801 11.4288 8.1909C11.4288 8.90379 11.1038 9.65184 10.5562 10.1714C10.0083 10.6909 9.19316 11.0138 8.39854 11.0138C7.60391 11.0138 6.78867 10.6911 6.24092 10.1716C5.69326 9.65203 5.36816 8.90398 5.36816 8.19109C5.36816 7.47801 5.69316 6.73309 6.24082 6.21355C6.78867 5.69402 7.60381 5.36814 8.39844 5.36814V5.36795ZM25 5.36795C25.7946 5.36795 26.6099 5.69383 27.1576 6.21336C27.7053 6.73289 28.0304 7.47801 28.0304 8.1909C28.0304 8.90379 27.7054 9.65184 27.1577 10.1714C26.6099 10.6909 25.7947 11.0138 25.0001 11.0138C24.2055 11.0138 23.3902 10.6911 22.8425 10.1716C22.2948 9.65203 21.9697 8.90398 21.9697 8.19109C21.9697 7.47801 22.2947 6.73309 22.8424 6.21355C23.3902 5.69402 24.2054 5.36814 25 5.36814V5.36795ZM17.4805 17.7551H32.2266V32.5012H17.4805V17.7551ZM41.4124 20.3217C40.136 20.3217 38.8958 20.8041 37.9791 21.6736C37.0625 22.543 36.5295 23.7486 36.5295 25C36.5295 26.2513 37.0625 27.457 37.9791 28.3264C38.8957 29.1959 40.136 29.6814 41.4123 29.6814C42.6887 29.6814 43.9289 29.1959 44.8456 28.3264C45.7621 27.4569 46.295 26.2513 46.295 25C46.295 23.7486 45.7621 22.5429 44.8455 21.6735C43.9288 20.8041 42.6885 20.3217 41.4121 20.3217H41.4124ZM22.1497 21.222C21.9651 21.222 21.7847 21.2771 21.6316 21.3801C21.4784 21.4832 21.3595 21.6296 21.2901 21.8006C21.2206 21.9717 21.2037 22.1595 21.2416 22.3402C21.2795 22.5209 21.3704 22.6861 21.5027 22.8148L23.6878 25L21.576 27.1118C21.4888 27.1977 21.4194 27.3001 21.372 27.4129C21.3245 27.5258 21.2998 27.6469 21.2994 27.7693C21.2989 27.8917 21.3227 28.013 21.3693 28.1262C21.416 28.2394 21.4846 28.3423 21.5711 28.4289C21.6577 28.5154 21.7605 28.584 21.8737 28.6307C21.9869 28.6773 22.1082 28.7011 22.2306 28.7007C22.3531 28.7002 22.4742 28.6756 22.5871 28.6281C22.6999 28.5806 22.8022 28.5113 22.8882 28.4241L25 26.3123L27.1851 28.4973C27.2712 28.5835 27.3735 28.6519 27.4861 28.6985C27.5987 28.7451 27.7194 28.7691 27.8412 28.7691C27.9631 28.7691 28.0837 28.7451 28.1963 28.6985C28.3089 28.6519 28.4112 28.5835 28.4974 28.4973C28.5835 28.4112 28.6519 28.3089 28.6985 28.1963C28.7451 28.0837 28.7691 27.9631 28.7691 27.8412C28.7691 27.7193 28.7451 27.5987 28.6985 27.4861C28.6519 27.3735 28.5835 27.2712 28.4974 27.185L26.3123 25L28.4241 22.8882C28.5584 22.7579 28.6501 22.59 28.6873 22.4067C28.7244 22.2233 28.7053 22.033 28.6323 21.8607C28.5594 21.6884 28.4361 21.5422 28.2785 21.4412C28.121 21.3403 27.9366 21.2894 27.7496 21.2951C27.5086 21.3023 27.2799 21.403 27.1119 21.5759L25 23.6878L22.8149 21.5027C22.7284 21.4138 22.625 21.3432 22.5107 21.2949C22.3964 21.2467 22.2736 21.2219 22.1496 21.222L22.1497 21.222ZM41.4124 22.1771C42.2069 22.1771 43.0223 22.4999 43.5699 23.0194C44.1178 23.5389 44.4428 24.287 44.4428 24.9999C44.4428 25.7128 44.1176 26.4579 43.5699 26.9774C43.0223 27.497 42.2069 27.8227 41.4123 27.8227C40.6178 27.8227 39.8024 27.497 39.2548 26.9774C38.7069 26.4579 38.3817 25.7128 38.3817 24.9999C38.3817 24.287 38.7069 23.5389 39.2548 23.0194C39.8023 22.4999 40.6177 22.177 41.4122 22.177L41.4124 22.1771ZM25 37.1246C23.7236 37.1246 22.4834 37.607 21.5668 38.4765C20.6502 39.346 20.1172 40.5517 20.1172 41.803C20.1172 43.0543 20.6502 44.263 21.5668 45.1324C22.4834 46.0019 23.7236 46.4873 25 46.4873C26.2764 46.4873 27.5166 46.0019 28.4332 45.1324C29.3498 44.263 29.8828 43.0543 29.8828 41.8029C29.8828 40.5516 29.3498 39.3459 28.4332 38.4765C27.5166 37.6071 26.2763 37.1246 25 37.1246ZM5.54805 38.025C5.36342 38.0249 5.18298 38.08 5.02981 38.1831C4.87664 38.2862 4.75772 38.4326 4.68826 38.6037C4.61879 38.7747 4.60194 38.9626 4.63987 39.1433C4.6778 39.324 4.76878 39.4893 4.90117 39.618L7.08613 41.806L4.97461 43.9179C4.88643 44.0037 4.81617 44.106 4.76791 44.2191C4.71965 44.3322 4.69435 44.4538 4.69348 44.5768C4.69261 44.6997 4.71619 44.8216 4.76285 44.9354C4.80951 45.0492 4.87831 45.1526 4.96527 45.2395C5.05222 45.3265 5.15559 45.3952 5.26936 45.4419C5.38314 45.4885 5.50505 45.5121 5.62802 45.5112C5.75098 45.5104 5.87254 45.4851 5.98564 45.4368C6.09874 45.3885 6.20111 45.3182 6.28682 45.2301L8.39844 43.1181L10.5835 45.3033C10.6694 45.3905 10.7718 45.4598 10.8846 45.5073C10.9975 45.5548 11.1186 45.5795 11.241 45.5799C11.3634 45.5804 11.4847 45.5566 11.5979 45.5099C11.7111 45.4633 11.814 45.3947 11.9006 45.3082C11.9871 45.2216 12.0557 45.1187 12.1024 45.0056C12.149 44.8924 12.1728 44.7711 12.1724 44.6486C12.1719 44.5262 12.1473 44.4051 12.0998 44.2922C12.0523 44.1794 11.983 44.077 11.8958 43.9911L9.71064 41.8059L11.8226 39.6941C11.9569 39.5638 12.0486 39.396 12.0858 39.2126C12.123 39.0292 12.1038 38.8389 12.0309 38.6666C11.9579 38.4942 11.8346 38.348 11.677 38.2471C11.5195 38.1461 11.3351 38.0952 11.148 38.101C10.9071 38.1081 10.6784 38.2088 10.5104 38.3817L8.39844 40.4938L6.21338 38.3056C6.12688 38.2167 6.02343 38.1461 5.90915 38.0979C5.79487 38.0496 5.67208 38.0248 5.54805 38.0249V38.025ZM25 38.9831C25.7946 38.9831 26.6099 39.3057 27.1576 39.8254C27.7053 40.3449 28.0304 41.0898 28.0304 41.8029C28.0304 42.5158 27.7054 43.2639 27.1577 43.7834C26.6099 44.3029 25.7947 44.6258 25.0001 44.6258C24.2055 44.6258 23.3902 44.3029 22.8425 43.7834C22.2948 43.2639 21.9697 42.5158 21.9697 41.8029C21.9697 41.0897 22.2947 40.3449 22.8424 39.8252C23.3902 39.3056 24.2054 38.9829 25 38.9829V38.9831Z" fill="white"/>
</svg>
