<svg width="24" height="24" viewBox="0 0 24 24" fill="none" xmlns="http://www.w3.org/2000/svg">
<path d="M12 12C11.175 12 10.4688 11.7062 9.88125 11.1187C9.29375 10.5312 9 9.825 9 9C9 8.175 9.29375 7.46875 9.88125 6.88125C10.4688 6.29375 11.175 6 12 6C12.825 6 13.5313 6.29375 14.1187 6.88125C14.7062 7.46875 15 8.175 15 9C15 9.825 14.7062 10.5312 14.1187 11.1187C13.5313 11.7062 12.825 12 12 12ZM16.5 18H7.5C7.0875 18 6.73425 17.853 6.44025 17.559C6.14625 17.265 5.9995 16.912 6 16.5V15.9C6 15.475 6.1095 15.0842 6.3285 14.7277C6.5475 14.3712 6.838 14.0995 7.2 13.9125C7.975 13.525 8.7625 13.2342 9.5625 13.0402C10.3625 12.8462 11.175 12.7495 12 12.75C12.825 12.75 13.6375 12.847 14.4375 13.041C15.2375 13.235 16.025 13.5255 16.8 13.9125C17.1625 14.1 17.4532 14.372 17.6722 14.7285C17.8912 15.085 18.0005 15.4755 18 15.9V16.5C18 16.9125 17.853 17.2657 17.559 17.5597C17.265 17.8537 16.912 18.0005 16.5 18ZM7.5 16.5H16.5V15.9C16.5 15.7625 16.4655 15.6375 16.3965 15.525C16.3275 15.4125 16.237 15.325 16.125 15.2625C15.45 14.925 14.7687 14.672 14.0812 14.5035C13.3937 14.335 12.7 14.2505 12 14.25C11.3 14.25 10.6063 14.3345 9.91875 14.5035C9.23125 14.6725 8.55 14.9255 7.875 15.2625C7.7625 15.325 7.67175 15.4125 7.60275 15.525C7.53375 15.6375 7.4995 15.7625 7.5 15.9V16.5ZM12 10.5C12.4125 10.5 12.7658 10.353 13.0598 10.059C13.3538 9.765 13.5005 9.412 13.5 9C13.5 8.5875 13.353 8.23425 13.059 7.94025C12.765 7.64625 12.412 7.4995 12 7.5C11.5875 7.5 11.2343 7.647 10.9403 7.941C10.6463 8.235 10.4995 8.588 10.5 9C10.5 9.4125 10.647 9.76575 10.941 10.0597C11.235 10.3537 11.588 10.5005 12 10.5Z" fill="white"/>
</svg>
