<svg width="100" height="100" viewBox="0 0 100 100" fill="none" xmlns="http://www.w3.org/2000/svg">
<path d="M60.6453 34.1359C59.2938 31.4359 58.8235 27.85 63.2422 25.0766C70.5547 20.4891 74.2422 12.9016 71.6375 7.79844C70.1282 4.82969 67.5485 3.125 64.5641 3.125C61.5297 3.125 58.5 4.86406 56.0344 8.02969C51.7203 13.5641 47.2078 17.475 42.8438 21.2609C38.4766 25.0484 34.3516 28.6234 31.3313 33.2109C28.0219 38.2375 23.4672 46.3078 21.2844 52.1531C17.7407 61.6687 24.5594 72.9094 30.8125 76.4687L30.8782 76.5063L30.9485 76.5391C36.3985 79.1781 42.5547 82.2109 43.6016 82.8125C47.2 85.9906 56.286 94.6688 56.3766 94.7578L56.4219 94.8L56.4703 94.8406C58.025 96.1719 59.8438 96.875 61.7328 96.875C64.9985 96.875 68.1032 94.7047 69.286 91.5984C70.4203 88.6172 69.5563 85.5188 66.975 83.3109L60.3672 77.3969C61.746 76.9354 62.933 76.0299 63.7422 74.8219C64.5516 73.6203 64.9782 72.1656 65 70.6625L65.611 70.6062C69.3282 70.2422 71.961 67.6875 72.5532 64.1312C75.0282 63.8531 77.0547 62.5844 78.2891 60.5391C79.1907 59.2359 79.661 57.6875 79.686 55.9359C79.7594 50.7828 77.6438 43.6609 60.6453 34.1359ZM77.4032 55.9031C77.3813 57.3062 76.9657 58.6641 76.3625 59.3328C75.7922 59.9672 74.5407 60.5094 73.186 60.6422L64.2032 61.4797C62.3344 61.6734 61.2594 61.2328 59.9266 60.2266L52.975 54.5563C50.4141 52.4891 50.5078 49.5078 51.9094 47.225C51.1517 48.0059 50.5807 48.9482 50.2391 49.9813C45.9485 52.075 40.7188 52.0719 36.325 49.4812C35.8144 49.1772 35.3243 48.84 34.8578 48.4719C35.8093 49.9524 37.0948 51.1892 38.611 52.0828C42.211 54.2031 46.5172 54.1344 49.9828 52.3094C50.1172 53.5703 50.725 54.8031 51.9813 55.8172L58.9344 61.4859C60.2657 62.4938 61.3422 62.9344 63.2125 62.7406L70.3813 62.0828C70.468 63.3576 70.1836 64.6302 69.5625 65.7469C68.7703 66.4719 67.711 66.9766 66.3719 67.1094L57.3875 67.9469C55.5188 68.1391 54.4422 67.7 53.1125 66.6937L46.1563 61.0203C43.5953 58.9547 43.6922 55.9734 45.0907 53.6891C42.85 56.0156 42.0922 59.8016 45.1641 62.2797L52.1172 67.9484C53.4516 68.9578 54.5125 69.7656 56.3985 69.6437L62.4844 69.2453C62.9672 70.3359 62.775 71.925 61.9985 73.2844C61.3172 73.9031 60.4141 74.3359 59.2672 74.4484L51.5828 74.65C49.9735 74.6922 48.5297 74.0547 47.3891 73.1922L41.9563 69.2375C39.7657 67.4672 39.8469 64.9141 41.0438 62.9578C39.1266 64.95 38.1391 68.3156 40.7688 70.4391L46.6703 74.8484C47.8094 75.7109 49.1125 76.2078 50.7219 76.2406L55.7969 76.3422L65.4766 85.0062C65.5766 85.0922 65.65 85.1828 65.7422 85.2719C70.0594 89.7859 63.1844 96.8203 58.1641 91.7063C54.2094 87.6844 50.386 83.4563 42.7797 78.7969C38.3969 76.1125 33.8063 73.5891 33.8063 73.5891C28.361 70.4906 22.4453 61.2187 25.5266 52.9516C27.6063 47.3656 31.8172 39.7891 35.1203 34.7719C40.8172 26.1156 50.7094 20.6094 59.6125 9.1875C60.8828 7.55938 63.3969 4.96094 66.261 5.66719C67.6407 6.00781 68.7719 7.18281 69.5985 8.80625C71.6141 12.7531 68.3938 19.1828 62.0157 23.1828C56.1203 26.8797 56.9016 32.1641 58.936 35.7641C76.1485 45.275 77.4578 51.9906 77.4032 55.9031Z" fill="white"/>
<path d="M65.3156 49.1375C65.3156 49.1375 59.2484 42.9735 53.8109 45.8047C59.5672 44.5344 65.2515 52.3172 65.2515 52.3172C65.2515 52.3172 67.4125 49.9906 70.8547 50.2578C68.3281 48.9266 65.3156 49.1375 65.3156 49.1375Z" fill="white"/>
</svg>
