<svg width="106" height="106" viewBox="0 0 106 106" fill="none" xmlns="http://www.w3.org/2000/svg">
<path d="M60.3209 70.8564H78.6028V80.2129C77.0566 80.8422 75.2047 81.3436 73.0299 81.7021C70.4115 82.0448 67.5263 82.2181 64.3707 82.2181C58.8829 82.2181 53.8844 81.5675 49.3648 80.2818C44.9561 78.9982 41.1297 77.1262 37.8657 74.6793C34.7175 72.2417 32.2696 69.3124 30.5055 65.8843C28.7541 62.3928 27.8645 58.4626 27.8645 54.0638C27.8645 48.9895 28.6706 44.6317 30.2367 40.9548L30.2368 40.9548L30.2414 40.9437C31.8109 37.1752 34.1042 34.0547 37.1241 31.5573C40.2634 29.047 44.1203 27.1377 48.7294 25.8546C53.3467 24.5692 58.7103 23.9149 64.838 23.9149C67.2106 23.9149 69.9681 24.2108 73.121 24.8186L73.1407 24.8224L73.1604 24.8257C76.324 25.3484 79.4357 26.0452 82.496 26.9161C85.5708 27.7911 87.9756 28.6513 89.7404 29.4883L91.1733 30.1679L91.7721 28.6994L99.093 10.7473L99.6267 9.43849L98.352 8.82799C93.9638 6.72644 88.6575 5.01063 82.456 3.66398C76.204 2.21746 69.3422 1.5 61.8785 1.5C53.9519 1.5 46.331 2.58303 39.0216 4.75353L39.0158 4.75527C31.778 6.93613 25.3216 10.3043 19.661 14.8632C14.0769 19.3554 9.6322 25.0322 6.32281 31.8676L6.32277 31.8676L6.31791 31.8778C3.08758 38.6804 1.5 46.6668 1.5 55.7926C1.5 62.831 2.94714 69.3517 5.85679 75.3318C8.7632 81.3052 12.9576 86.4859 18.4156 90.8714L18.4216 90.8763L18.4276 90.881C23.8853 95.1749 30.4373 98.5318 38.0567 100.971L38.0644 100.974L38.0721 100.976C45.7166 103.333 54.2803 104.5 63.7477 104.5C67.3734 104.5 71.1956 104.136 75.2116 103.415C79.2084 102.786 83.1027 101.933 86.8942 100.854C90.7829 99.7769 94.2215 98.6042 97.2026 97.3317L97.2202 97.3242L97.2376 97.3162C100.199 95.962 102.494 94.5986 104.015 93.2L104.5 92.7543V92.0957V69.3564V50.7394V49.2394H103H60.3209H58.8209V50.7394V69.3564V70.8564H60.3209Z" fill="black" stroke="white" stroke-width="3"/>
</svg>
