<svg xmlns="http://www.w3.org/2000/svg" viewBox="0 0 156.88 156.88"><defs><style>.cls-1,.cls-3{fill:#f7941d;}.cls-1{stroke:#f7941d;}.cls-1,.cls-2,.cls-4{stroke-miterlimit:10;stroke-width:10px;}.cls-2{fill:#231f20;}.cls-2,.cls-4{stroke:#231f20;stroke-linecap:round;}.cls-4{fill:none;}</style></defs><g id="Layer_2" data-name="Layer 2"><g id="Layer_1-2" data-name="Layer 1"><path class="cls-1" d="M105.44,84.36l-27,18.78-27-18.78a78,78,0,0,1,27-4.51A78,78,0,0,1,105.44,84.36Z"/><path class="cls-2" d="M123.44,92.46v39.3c0,3.93-5.4,7.15-12,7.15l-33,10-33-10c-6.6,0-12-3.22-12-7.15V92.46c0-3,12.08-7.7,20.75-9.78a20,20,0,0,1,11.32.61l2.83,1a30.24,30.24,0,0,0,20.2,0l2.82-1a19.94,19.94,0,0,1,11.32-.61C111.35,84.76,123.44,89.47,123.44,92.46Z"/><circle class="cls-3" cx="78.43" cy="43.62" r="24.35"/><circle class="cls-4" cx="78.44" cy="78.44" r="73.44"/></g></g></svg>