<svg width="100" height="100" viewBox="0 0 100 100" fill="none" xmlns="http://www.w3.org/2000/svg">
<path d="M20.9374 87.6719C18.0311 84.5946 15.7837 80.9563 14.3328 76.9799C12.882 73.0035 12.2583 68.7728 12.4999 64.5469C12.4999 46.7656 20.7906 41.2344 27.4531 36.7906L27.4562 36.7875C30.0943 35.3218 32.3967 33.3206 34.2156 30.9125C35.2124 29.3094 35.3499 27.6531 35.3499 17.2812C35.2531 15.3483 35.5534 13.4161 36.2322 11.6038C36.911 9.79143 37.954 8.13739 39.2968 6.74373C41.8919 4.3119 45.3282 2.98015 48.8843 3.02811C55.8562 3.02811 60.7124 7.46248 62.1562 15.2156C62.6874 20.5469 62.6718 25.9219 62.1156 31.25H72.4062C75.5795 31.2533 78.6219 32.5153 80.8657 34.7592C83.1096 37.0031 84.3716 40.0454 84.3749 43.2187C84.3919 45.1061 84.0007 46.9748 83.2281 48.6969C85.7968 50.8437 87.4999 53.9781 87.4999 57.5719V57.5937C87.5432 60.3565 86.6141 63.0466 84.8749 65.1937C86.5618 67.2245 87.4899 69.7788 87.4999 72.4187C87.5361 74.0966 87.2066 75.7623 86.5343 77.3L86.5031 77.375C85.8475 78.8915 84.8596 80.2414 83.6124 81.325C84.1424 82.804 84.4007 84.3666 84.3749 85.9375V85.9437C84.3749 88.8437 83.3437 91.6531 81.1656 93.7281C80.9062 93.9781 80.6343 94.2125 80.3468 94.4312C78.152 96.2289 75.3469 97.108 72.5187 96.8844H60.3499C60.1874 96.8844 60.0281 96.8844 59.8656 96.875H48.9062C36.5656 96.875 27.1499 93.7875 20.9406 87.6719H20.9374ZM50.0968 90.625H50.8843C50.2661 89.1418 49.9485 87.5506 49.9499 85.9437C49.9499 84.2687 50.5343 81.7437 52.0531 79.525C50.4124 77.0219 49.9499 74.1875 49.9499 72.4187C49.9499 70.5437 50.6187 67.675 52.3562 65.1969C51.3706 63.8373 50.6721 62.2913 50.3031 60.6531C48.4187 66.425 45.0218 72.7875 38.9374 78.0469C38.627 78.3155 38.2667 78.5203 37.8771 78.6496C37.4875 78.779 37.0762 78.8303 36.6667 78.8007C36.2573 78.7711 35.8577 78.6611 35.4907 78.4771C35.1238 78.2931 34.7967 78.0386 34.5281 77.7281C34.2595 77.4177 34.0547 77.0573 33.9253 76.6677C33.796 76.2781 33.7446 75.8669 33.7742 75.4574C33.8038 75.048 33.9138 74.6483 34.0978 74.2814C34.2819 73.9144 34.5364 73.5873 34.8468 73.3187C41.3906 67.6625 44.2718 60.3937 45.5031 54.4C46.1156 51.4125 46.3093 48.7844 46.3468 46.9156C46.3669 45.9693 46.346 45.0226 46.2843 44.0781V44.0625C46.234 43.5591 46.3067 43.051 46.4962 42.5818C46.6856 42.1127 46.9861 41.6966 47.3719 41.3692C47.7576 41.0419 48.2171 40.8131 48.7108 40.7025C49.2045 40.5919 49.7177 40.6028 50.2062 40.7344C50.4812 39.2969 51.0062 37.6875 51.8781 36.2031C52.8087 34.5759 54.1715 33.238 55.8156 32.3375C56.2843 27.0187 56.3468 21.6719 56.0093 16.3437C54.6874 9.25936 50.3843 9.27186 48.8218 9.27811H48.7093C46.8487 9.26109 45.0508 9.95009 43.6781 11.2062C42.94 12.0277 42.3755 12.9898 42.0184 14.0348C41.6613 15.0798 41.519 16.1861 41.5999 17.2875C41.5999 27.7312 41.5999 30.8844 39.5187 34.225C37.2551 37.4051 34.3271 40.0549 30.9374 41.9906L30.9156 42.0062C24.6749 46.1719 18.7499 50.1281 18.7499 64.5469C18.5058 67.9418 18.9623 71.3507 20.0913 74.5617C21.2202 77.7727 22.9974 80.7173 25.3124 83.2125C30.4999 88.3125 38.7999 90.7687 50.0968 90.625ZM72.4093 90.625C74.5624 90.625 76.1718 90.025 77.1249 88.9187C77.7499 88.1812 78.1249 87.1812 78.1249 85.9437C78.1249 85.1625 78.0468 84.5437 77.9249 84.0562C76.8624 84.275 75.7343 84.3875 74.5499 84.3875H61.5218C59.7687 84.3875 58.2343 84.075 56.9124 83.5437C56.8118 83.7294 56.7211 83.9203 56.6406 84.1156C56.3031 84.9219 56.2031 85.625 56.2031 85.9437C56.2031 87.2312 56.6124 88.4594 57.2968 89.3C57.8718 90.0031 58.7124 90.5469 60.0156 90.625H72.4093ZM79.6593 68.7344C78.013 69.286 76.2862 69.5595 74.5499 69.5437H61.1593C59.7843 69.5437 58.5218 69.325 57.3781 68.925C57.1063 69.3378 56.878 69.7776 56.6968 70.2375C56.3218 71.175 56.1999 72.0031 56.1999 72.4187C56.1999 73.325 56.4812 74.8875 57.2937 76.1219C57.9906 77.175 59.1499 78.1375 61.5249 78.1375H74.5499C76.1781 78.1375 77.4249 77.825 78.3624 77.3625C79.4285 76.8281 80.2806 75.9462 80.7781 74.8625C81.0812 74.1562 81.2499 73.3375 81.2499 72.4187C81.2198 71.4721 80.9476 70.549 80.4593 69.7375L80.4249 69.6812C80.2044 69.3409 79.9489 69.0246 79.6624 68.7375L79.6593 68.7344ZM80.6062 60.3531C80.6874 60.2062 80.7624 60.0531 80.8281 59.9C81.0999 59.2187 81.2499 58.4437 81.2499 57.575C81.2046 56.4947 80.8523 55.4497 80.2343 54.5625C79.9138 54.1267 79.5365 53.7357 79.1124 53.4C77.2374 54.5656 74.9624 55.1875 72.4062 55.1875H60.3499C59.2296 55.1927 58.1177 54.9936 57.0687 54.6C56.9499 54.8187 56.8437 55.0406 56.7468 55.2687C56.4261 55.9979 56.2407 56.7794 56.1999 57.575C56.1999 59.125 56.6874 60.6156 57.5124 61.6531C58.2781 62.6062 59.4124 63.2937 61.1593 63.2937H74.5499C76.4874 63.2937 77.8874 62.8531 78.8687 62.2375C79.5937 61.7625 80.1906 61.1156 80.6062 60.3531ZM60.3437 37.5C58.8656 37.5031 57.9562 38.2031 57.2656 39.375C56.6082 40.5525 56.2438 41.8708 56.2031 43.2187C56.2031 44.3969 56.6281 45.9875 57.4656 47.2094C58.2593 48.3656 59.2093 48.9375 60.3531 48.9375H72.4093C74.5656 48.9375 75.9031 48.225 76.7218 47.3437L76.7531 47.3094C77.1521 46.8323 77.4737 46.2956 77.7062 45.7187C77.9749 45.0031 78.1281 44.1687 78.1281 43.2187C78.1264 41.702 77.5229 40.2479 76.4501 39.1757C75.3774 38.1035 73.9229 37.5008 72.4062 37.5H60.3437Z" fill="white"/>
</svg>
