<svg width="155" height="149" viewBox="0 0 155 149" fill="none" xmlns="http://www.w3.org/2000/svg">
<g filter="url(#filter0_d_1_13)">
<path d="M48.4333 59.6042L45.3668 57.6568L44.8 58.5433V59.6042H48.4333ZM77.5 59.6042L74.2518 57.9765C73.9742 58.5304 73.8429 59.1461 73.8704 59.7651C73.8978 60.3841 74.0831 60.9858 74.4086 61.513C74.734 62.0402 75.189 62.4754 75.73 62.7772C76.2711 63.0791 76.8804 63.2375 77.5 63.2376V59.6042ZM128.367 95.9376L131.273 98.1176L132 97.1511V95.9376H128.367ZM23 55.9709V128.638H30.2667V55.9709H23ZM51.4999 61.5517L71.0981 30.7556L64.9723 26.8461L45.3668 57.6568L51.4999 61.5517ZM84.1635 38.153L74.2518 57.9765L80.7482 61.2247L90.6672 41.3867L84.1635 38.1458V38.153ZM77.5 63.2376H113.833V55.9709H77.5V63.2376ZM124.733 74.1376V95.9376H132V74.1376H124.733ZM125.46 93.7576L108.02 117.011L113.833 121.371L131.273 98.1176L125.46 93.7576ZM99.3 121.371H62.9667V128.638H99.3V121.371ZM52.0667 110.471V59.6042H44.8V110.471H52.0667ZM113.833 63.2376C116.724 63.2376 119.497 64.386 121.541 66.4301C123.585 68.4742 124.733 71.2467 124.733 74.1376H132C132 69.3195 130.086 64.6987 126.679 61.2918C123.272 57.8849 118.651 55.9709 113.833 55.9709V63.2376ZM62.9667 121.371C60.0758 121.371 57.3033 120.223 55.2592 118.178C53.2151 116.134 52.0667 113.362 52.0667 110.471H44.8C44.8 115.289 46.714 119.91 50.1209 123.317C53.5278 126.724 58.1486 128.638 62.9667 128.638V121.371ZM81.3077 28.343C84.6795 30.3632 85.9221 34.636 84.1635 38.153L90.6672 41.3867C92.3329 38.0557 92.6797 34.2259 91.6382 30.6503C90.5968 27.0746 88.2439 24.0239 85.0501 22.1082L81.3077 28.343ZM108.02 117.011C107.005 118.365 105.688 119.463 104.175 120.22C102.661 120.977 100.992 121.371 99.3 121.371V128.638C102.12 128.638 104.902 127.981 107.424 126.72C109.947 125.458 112.141 123.627 113.833 121.371L108.02 117.011ZM71.0981 30.7556C73.2781 27.3112 77.8197 26.2502 81.3077 28.343L85.0573 22.1082C81.7535 20.1248 77.8057 19.5101 74.0552 20.3951C70.3047 21.2802 67.0409 23.5949 64.9723 26.8461L71.1053 30.7483L71.0981 30.7556Z" fill="white"/>
</g>
<defs>
<filter id="filter0_d_1_13" x="3" y="0" width="149" height="148.638" filterUnits="userSpaceOnUse" color-interpolation-filters="sRGB">
<feFlood flood-opacity="0" result="BackgroundImageFix"/>
<feColorMatrix in="SourceAlpha" type="matrix" values="0 0 0 0 0 0 0 0 0 0 0 0 0 0 0 0 0 0 127 0" result="hardAlpha"/>
<feOffset/>
<feGaussianBlur stdDeviation="10"/>
<feComposite in2="hardAlpha" operator="out"/>
<feColorMatrix type="matrix" values="0 0 0 0 1 0 0 0 0 1 0 0 0 0 1 0 0 0 1 0"/>
<feBlend mode="normal" in2="BackgroundImageFix" result="effect1_dropShadow_1_13"/>
<feBlend mode="normal" in="SourceGraphic" in2="effect1_dropShadow_1_13" result="shape"/>
</filter>
</defs>
</svg>
