<svg width="488" height="488" viewBox="0 0 488 488" fill="none" xmlns="http://www.w3.org/2000/svg">
<path d="M270.433 351.258C266.367 347.192 264.415 342.278 264.577 336.517C264.74 330.756 266.861 325.842 270.942 321.775L328.383 264.333H101.667C95.9055 264.333 91.073 262.381 87.169 258.477C83.265 254.573 81.3198 249.748 81.3333 244C81.3333 238.239 83.2853 233.406 87.1893 229.502C91.0933 225.598 95.9191 223.653 101.667 223.667H328.383L270.433 165.717C266.367 161.65 264.333 156.817 264.333 151.219C264.333 145.621 266.367 140.795 270.433 136.742C274.5 132.675 279.333 130.642 284.931 130.642C290.529 130.642 295.355 132.675 299.408 136.742L392.433 229.767C394.467 231.8 395.91 234.003 396.764 236.375C397.618 238.747 398.039 241.289 398.025 244C398.025 246.711 397.598 249.253 396.744 251.625C395.89 253.997 394.453 256.2 392.433 258.233L298.9 351.767C295.172 355.494 290.516 357.358 284.931 357.358C279.346 357.358 274.514 355.325 270.433 351.258Z" fill="black"/>
</svg>
