<svg width="68" height="68" viewBox="0 0 68 68" fill="none" xmlns="http://www.w3.org/2000/svg">
<path d="M25.5 43.9167H43.2084C45.3806 43.9167 47.2222 43.1489 48.7334 41.6132C50.2445 40.0775 51 38.2481 51 36.125C51 34 50.2794 32.1933 48.8382 30.7049C47.397 29.2164 45.6148 28.4259 43.4917 28.3334C42.8778 26.2084 41.6972 24.4961 39.95 23.1965C38.2028 21.897 36.2195 21.2481 34 21.25C32.0639 21.25 30.2931 21.7572 28.6875 22.7715C27.082 23.7859 25.8778 25.1912 25.075 26.9875C22.8084 27.082 20.8959 27.9442 19.3375 29.5744C17.7792 31.2045 17 33.1519 17 35.4167C17 37.7778 17.8264 39.7847 19.4792 41.4375C21.132 43.0903 23.1389 43.9167 25.5 43.9167ZM25.5 38.25C24.6972 38.25 24.0239 37.978 23.4799 37.434C22.9359 36.89 22.6648 36.2176 22.6667 35.4167C22.6667 34.6139 22.9264 33.9528 23.4459 33.4334C23.9653 32.9139 24.6028 32.6306 25.3584 32.5834H28.7584L30.175 29.3959C30.5528 28.5931 31.0845 27.9792 31.7702 27.5542C32.4559 27.1292 33.1991 26.9167 34 26.9167C34.9445 26.9167 35.7945 27.1887 36.55 27.7327C37.3056 28.2767 37.8014 29.02 38.0375 29.9625L39.1709 34H43.2792C43.8931 34 44.3889 34.2012 44.7667 34.6035C45.1445 35.0059 45.3334 35.513 45.3334 36.125C45.3334 36.6917 45.1331 37.1875 44.7327 37.6125C44.3322 38.0375 43.8241 38.25 43.2084 38.25H25.5ZM34 62.3334C30.0806 62.3334 26.3972 61.5891 22.95 60.1007C19.5028 58.6122 16.5042 56.594 13.9542 54.0459C11.4042 51.4959 9.38591 48.4972 7.89935 45.05C6.4128 41.6028 5.66858 37.9195 5.66669 34C5.66669 30.0806 6.41091 26.3972 7.89935 22.95C9.3878 19.5028 11.4061 16.5042 13.9542 13.9542C16.5042 11.4042 19.5028 9.38591 22.95 7.89935C26.3972 6.4128 30.0806 5.66858 34 5.66669C37.9195 5.66669 41.6028 6.41091 45.05 7.89935C48.4972 9.3878 51.4959 11.4061 54.0459 13.9542C56.5959 16.5042 58.6151 19.5028 60.1035 22.95C61.592 26.3972 62.3352 30.0806 62.3334 34C62.3334 37.9195 61.5891 41.6028 60.1007 45.05C58.6122 48.4972 56.594 51.4959 54.0459 54.0459C51.4959 56.5959 48.4972 58.6151 45.05 60.1035C41.6028 61.592 37.9195 62.3352 34 62.3334ZM34 56.6667C40.3278 56.6667 45.6875 54.4709 50.0792 50.0792C54.4709 45.6875 56.6667 40.3278 56.6667 34C56.6667 27.6722 54.4709 22.3125 50.0792 17.9209C45.6875 13.5292 40.3278 11.3334 34 11.3334C27.6722 11.3334 22.3125 13.5292 17.9209 17.9209C13.5292 22.3125 11.3334 27.6722 11.3334 34C11.3334 40.3278 13.5292 45.6875 17.9209 50.0792C22.3125 54.4709 27.6722 56.6667 34 56.6667Z" fill="#8C8A93"/>
</svg>
